<svg id="Layer_3" data-name="Layer 3" xmlns="http://www.w3.org/2000/svg" viewBox="0 0 130.06 39.33"><defs><style>.cls-1{fill:#ffedb3;}.cls-2{fill:#f9b29c;}.cls-3{fill:#8accf0;}.cls-4{fill:#aacca2;}.cls-5{fill:#ffcb05;}.cls-6{fill:#ed1d24;}.cls-7{fill:#009ad5;}.cls-8{fill:#57ae47;}</style></defs><title>logo_mega</title><path d="M517.21,256.48c0.57,0,1.09,0,1.09-.73s-0.51-.66-1-0.66H516.4v1.39h0.81ZM516.4,259h-0.67v-4.46h1.71c1.06,0,1.58.4,1.58,1.27a1.16,1.16,0,0,1-1.16,1.22l1.27,2h-0.75L517.18,257H516.4V259Zm0.82,1a3.22,3.22,0,1,0-3.15-3.24,3.13,3.13,0,0,0,3.15,3.24m-3.94-3.24a3.93,3.93,0,1,1,3.94,3.89,3.86,3.86,0,0,1-3.94-3.89" transform="translate(-391.09 -252.9)"/><path class="cls-1" d="M452.69,282a5.44,5.44,0,0,0-2.59-.57h-3.38c-1,0-1.79-.29-1.79-0.65s0.8-.65,1.79-0.65h4.48a1.8,1.8,0,0,0,1.8-1.8V273.6a3.34,3.34,0,0,0-.8-2.37,5.53,5.53,0,0,0-2.58-.57h-3.38c-1,0-1.79-.16-1.79-0.36s0.81-.36,1.79-0.36h4.67a1.79,1.79,0,0,0,1.79-1.79v-6.23a3.32,3.32,0,0,0-.79-2.36,5.49,5.49,0,0,0-2.59-.57H428.92a1.8,1.8,0,0,0-1.8,1.79v28.49a3.33,3.33,0,0,0,.79,2.35,5.48,5.48,0,0,0,2.59.57h21.18a1.79,1.79,0,0,0,1.8-1.79v-6a3.33,3.33,0,0,0-.8-2.36" transform="translate(-391.09 -252.9)"/><path class="cls-2" d="M480.43,273.41a5.54,5.54,0,0,0-2.6-.57h-9a1.76,1.76,0,0,0-1.77,1.79l0.08,4a5.36,5.36,0,0,1-.19,2A1.86,1.86,0,0,1,466,279s-0.23-4.69-.23-6.14,1.37-1.57,2.45-1.76,10,0,10,0a1.75,1.75,0,0,0,1.79-1.75v-7.41a3.32,3.32,0,0,0-.79-2.36,6.34,6.34,0,0,0-2.57-.71,62.83,62.83,0,0,0-10.6.14c-4.82.59-8.66,0.78-12.59,4.81s-4,6.76-4.23,11.17c-0.18,4.09,6.37,12.74,6.37,12.74a15.94,15.94,0,0,0,2.52,2.51,4.16,4.16,0,0,0,1.16.51c4.72,1.56,6.4,1.47,8.06,1.47s11.68-.08,11.68-0.08a1.87,1.87,0,0,0,1.83-1.8l0.32-14.55a3.28,3.28,0,0,0-.75-2.35" transform="translate(-391.09 -252.9)"/><path class="cls-3" d="M512.69,292.22a1.27,1.27,0,0,0,1.29-1.71l-8.45-28.84a5.08,5.08,0,0,0-1.3-2.29,5.56,5.56,0,0,0-2.58-.57H486.5a2.53,2.53,0,0,0-2.29,1.71l-8.44,28.84a2.31,2.31,0,0,0,.29,2.29,5.37,5.37,0,0,0,2.58.57h10a2.23,2.23,0,0,0,2.14-1.19,2.28,2.28,0,0,1,2.15-1.19h4.14c1,0,1.88.28,2,.62a2.82,2.82,0,0,0,1,1.19,5.4,5.4,0,0,0,2.58.57h10Z" transform="translate(-391.09 -252.9)"/><path class="cls-4" d="M426.07,259.51a5.52,5.52,0,0,0-2.59-.57H413.32a2.21,2.21,0,0,0-1.43.89c-1,1.13-2.64,2.94-3.54,3s-2.73-1.81-3.79-2.94a2.64,2.64,0,0,0-1.74-.9h-9.94a1.8,1.8,0,0,0-1.8,1.79v28.49a3.34,3.34,0,0,0,.79,2.35,5.47,5.47,0,0,0,2.59.58h9.08a1.8,1.8,0,0,0,1.79-1.79v-4.82c0-1,.57-1.22,1.27-0.53l0.31,0.32a22.7,22.7,0,0,0,2.06,1.83c0.44,0.31,1.37,0,2.06-.69l0.3-.31c0.7-.7,1.27-0.46,1.27.53v2.54a3.32,3.32,0,0,0,.79,2.35,5.43,5.43,0,0,0,2.59.58h9.07a1.8,1.8,0,0,0,1.8-1.79V261.87a3.39,3.39,0,0,0-.79-2.37" transform="translate(-391.09 -252.9)"/><path class="cls-5" d="M428.92,291.06a1.8,1.8,0,0,1-1.8-1.78V260.79a1.8,1.8,0,0,1,1.8-1.79h20.39a1.79,1.79,0,0,1,1.79,1.79V267a1.8,1.8,0,0,1-1.79,1.79h-4.67c-1,0-1.8.42-1.8,0.94s0.81,0.93,1.8.93h5a1.8,1.8,0,0,1,1.8,1.78v4.76a1.8,1.8,0,0,1-1.8,1.79h-4.48a1.31,1.31,0,1,0,0,2.45h5a1.8,1.8,0,0,1,1.8,1.78v6a1.8,1.8,0,0,1-1.8,1.78H428.92Z" transform="translate(-391.09 -252.9)"/><path class="cls-6" d="M476.64,270a1.76,1.76,0,0,0,1.8-1.76v-7.4a2,2,0,0,0-1.79-1.93,62.89,62.89,0,0,0-10.6.14c-4.82.59-8.66,0.78-12.59,4.81s-4,6.76-4.23,11.17,3.74,13,8.46,14.61,6.39,1.47,8.06,1.47,11.67-.08,11.67-0.08a1.87,1.87,0,0,0,1.83-1.81l0.32-14.54a1.75,1.75,0,0,0-1.76-1.79h-9a1.76,1.76,0,0,0-1.77,1.79l0.08,4c-0.08,2-.74,2.76-1.16,2.77s-0.93-.9-1.22-1.43c-1.08-1.94-.55-6.71-0.55-8.28s1.38-1.57,2.46-1.76,10,0,10,0" transform="translate(-391.09 -252.9)"/><path class="cls-7" d="M489.24,289.89a2.24,2.24,0,0,1,2.14-1.2h5.39a2.23,2.23,0,0,1,2.14,1.2,2.27,2.27,0,0,0,2.15,1.19h10a1.27,1.27,0,0,0,1.28-1.72l-8.44-28.84a2.53,2.53,0,0,0-2.29-1.71H486.5a2.53,2.53,0,0,0-2.29,1.71l-8.44,28.84a1.27,1.27,0,0,0,1.3,1.72h10a2.27,2.27,0,0,0,2.15-1.19" transform="translate(-391.09 -252.9)"/><path class="cls-8" d="M413.5,258.94a2.2,2.2,0,0,0-1.58,1c-0.93,1.22-2.57,3.19-3.52,3.23s-3.24-2.47-4.19-3.62a2,2,0,0,0-1.51-.58h-9.81a1.8,1.8,0,0,0-1.8,1.79v28.49a1.79,1.79,0,0,0,1.8,1.78H402a1.78,1.78,0,0,0,1.78-1.78V284c0-1,.58-1.22,1.27-0.52l1.9,1.89a1.81,1.81,0,0,0,2.54,0l1.89-1.89c0.7-.7,1.27-0.46,1.27.53v5.26a1.79,1.79,0,0,0,1.79,1.78h9.07a1.79,1.79,0,0,0,1.79-1.78V260.73a1.79,1.79,0,0,0-1.79-1.79h-10Z" transform="translate(-391.09 -252.9)"/><path class="cls-7" d="M434.47,269.89a10.47,10.47,0,0,0-7.13,10.27,10.83,10.83,0,0,0,8.35,10.56,10.86,10.86,0,0,0,13.7-9.15l-5.05-.2A6,6,0,0,1,441.9,285a5.41,5.41,0,0,1-4.86.81,5.87,5.87,0,0,1-4.64-5.73c0-2.1,1.07-4.68,3.5-5.4a6.91,6.91,0,0,1,5.24.28l-6.41,4.76,3,4.05,10.76-8-1.24-2c-1.42-2.27-5.94-6-12.8-4" transform="translate(-391.09 -252.9)"/><path class="cls-8" d="M473,262.71v6.58h-0.94c-0.17-4.88-4.4-5.09-7-5.09H463V283a1.8,1.8,0,0,0,2,2h1.46V286h-11.6v-0.9h1.07a1.8,1.8,0,0,0,2-2V265.66a1.8,1.8,0,0,0-2-2.05h-1.07v-0.9H473Z" transform="translate(-391.09 -252.9)"/><polygon class="cls-6" points="13.41 11.2 6.73 11.2 6.73 29.24 10.86 29.24 10.86 14.93 15.09 29.04 19.21 29.04 23.44 14.93 23.44 29.24 27.57 29.24 27.57 11.2 20.88 11.2 17.15 25.42 13.41 11.2"/><path class="cls-5" d="M488.61,279.52a16.19,16.19,0,0,1,1.77-7.92c1.06-1.92,2.29-2.86,3.75-2.86a6.24,6.24,0,0,1,2.5.56c-0.1.64-.2,1.4-0.2,1.4a14.66,14.66,0,0,1-3.84,8c-1.91,2.06-3,2.37-3.5,2.37s-0.48-1.08-.48-1.54m14.73-1.68-1-.6-0.5,1.06a8.12,8.12,0,0,1-1.86,2.84c0-.38.1-0.95,0.23-1.91l0.18-1.27,1.27-8.82s0.24-1.21.24-1.21,0.24-1.05.24-1.05,0.1-.39.1-0.39l0.26-.93-0.91-.34a11.64,11.64,0,0,0-3.88-.58,13.32,13.32,0,0,0-10.22,4.79,16.31,16.31,0,0,0-4.25,11.21c0,4.76,2.37,5.47,3.78,5.47,1.61,0,3.38-.86,5.39-2.64a21.56,21.56,0,0,0,2.6-2.7c0,0.3-.06.54-0.06,0.54a12.46,12.46,0,0,0-.15,1.78c0,2.79,1.92,3,2.51,3,1.68,0,3.36-1.07,5.14-3.26s2-2.92,2-3.47a1.8,1.8,0,0,0-1-1.54" transform="translate(-391.09 -252.9)"/></svg>