<svg id="Layer_1" data-name="Layer 1" xmlns="http://www.w3.org/2000/svg" viewBox="0 0 49.25 49.25"><defs><style>.cls-1{fill:#8f9599;}</style></defs><title>icon_youtube</title><polygon class="cls-1" points="14.11 26.7 15.89 26.7 15.89 35.55 17.62 35.55 17.62 26.7 19.4 26.7 19.4 25.19 14.11 25.19 14.11 26.7"/><path class="cls-1" d="M205.49,605.53a0.78,0.78,0,0,0,.56-0.19,0.7,0.7,0,0,0,.21-0.53v-4.59a0.54,0.54,0,0,0-.21-0.45,0.84,0.84,0,0,0-.55-0.17,0.75,0.75,0,0,0-.51.17,0.56,0.56,0,0,0-.2.45v4.59a0.73,0.73,0,0,0,.18.53A0.69,0.69,0,0,0,205.49,605.53Z" transform="translate(-180.8 -586.2)"/><path class="cls-1" d="M209.29,614a1.52,1.52,0,0,0-.71.18,2.38,2.38,0,0,0-.65.53v-3.34h-1.54v10.37h1.54v-0.59a2,2,0,0,0,.65.52,1.83,1.83,0,0,0,.8.17,1.27,1.27,0,0,0,1-.43,1.91,1.91,0,0,0,.36-1.25v-4.24a2.26,2.26,0,0,0-.38-1.43A1.32,1.32,0,0,0,209.29,614Zm-0.09,6a0.84,0.84,0,0,1-.13.53,0.5,0.5,0,0,1-.41.16,0.9,0.9,0,0,1-.37-0.08,1.27,1.27,0,0,1-.36-0.27v-4.76a1.07,1.07,0,0,1,.31-0.23,0.72,0.72,0,0,1,.32-0.08,0.59,0.59,0,0,1,.48.2,0.93,0.93,0,0,1,.16.59V620Z" transform="translate(-180.8 -586.2)"/><path class="cls-1" d="M203.7,619.92a2.16,2.16,0,0,1-.47.41,0.87,0.87,0,0,1-.43.16,0.38,0.38,0,0,1-.31-0.12,0.65,0.65,0,0,1-.09-0.39V614.1h-1.53v6.39a1.65,1.65,0,0,0,.27,1,1,1,0,0,0,.8.34,1.86,1.86,0,0,0,.89-0.24,3.43,3.43,0,0,0,.88-0.71v0.84h1.53V614.1H203.7v5.81Z" transform="translate(-180.8 -586.2)"/><path class="cls-1" d="M205.42,586.2A24.63,24.63,0,1,0,230,610.82,24.63,24.63,0,0,0,205.42,586.2Zm4,12.16h1.72v6.46a0.68,0.68,0,0,0,.11.43,0.42,0.42,0,0,0,.35.14,1,1,0,0,0,.48-0.18,2.33,2.33,0,0,0,.53-0.46v-6.39h1.72v8.42h-1.72v-0.93a3.62,3.62,0,0,1-1,.78,2.17,2.17,0,0,1-1,.27,1.08,1.08,0,0,1-.9-0.38,1.77,1.77,0,0,1-.3-1.13v-7ZM203,600.28a1.94,1.94,0,0,1,.69-1.56,2.85,2.85,0,0,1,1.87-.58,2.54,2.54,0,0,1,1.75.61,2,2,0,0,1,.68,1.58v4.35a2.19,2.19,0,0,1-.67,1.7,2.63,2.63,0,0,1-1.84.61,2.55,2.55,0,0,1-1.81-.63,2.24,2.24,0,0,1-.68-1.71v-4.37Zm-4.69-4.92,1.26,4.56h0.12l1.2-4.56h2L200.61,602v4.74h-1.94v-4.53l-2.31-6.89h2Zm22.54,24a5.52,5.52,0,0,1-5.52,5.52H196.17a5.52,5.52,0,0,1-5.52-5.52V615a5.52,5.52,0,0,1,5.52-5.52h19.18a5.52,5.52,0,0,1,5.52,5.52v4.44Z" transform="translate(-180.8 -586.2)"/><path class="cls-1" d="M213.9,613.92a2.3,2.3,0,0,0-1.67.63,2.15,2.15,0,0,0-.65,1.62v3.44a2.44,2.44,0,0,0,.59,1.73,2.11,2.11,0,0,0,1.62.63,2.28,2.28,0,0,0,1.71-.59,2.45,2.45,0,0,0,.58-1.77V619.2h-1.57v0.35a1.64,1.64,0,0,1-.15.87,0.63,0.63,0,0,1-.53.2,0.57,0.57,0,0,1-.52-0.23,1.68,1.68,0,0,1-.15-0.84v-1.44h2.92v-2a2.29,2.29,0,0,0-.56-1.67A2.15,2.15,0,0,0,213.9,613.92Zm0.6,3h-1.35v-0.77a1.12,1.12,0,0,1,.16-0.69,0.61,0.61,0,0,1,.52-0.21,0.59,0.59,0,0,1,.51.21,1.12,1.12,0,0,1,.16.69v0.77Z" transform="translate(-180.8 -586.2)"/></svg>