<svg id="Layer_3" data-name="Layer 3" xmlns="http://www.w3.org/2000/svg" viewBox="0 0 35.03 34.98"><defs><style>.cls-1{fill:none;}.cls-1,.cls-2,.cls-3{stroke:#d5a638;stroke-linecap:round;stroke-linejoin:round;}.cls-1,.cls-2{stroke-width:1.5px;}.cls-2,.cls-3{fill:#fff;}.cls-3{stroke-width:2px;}</style></defs><title>icon_dummy</title><circle class="cls-1" cx="299.11" cy="402.08" r="8.25" transform="translate(-483.28 -50.37) rotate(-45)"/><circle class="cls-1" cx="299.11" cy="402.08" r="11.78" transform="translate(-483.28 -50.37) rotate(-45)"/><ellipse class="cls-2" cx="305.59" cy="395.59" rx="4.96" ry="17.02" transform="translate(-476.79 -47.68) rotate(-45)"/><path class="cls-3" d="M305,396.27s-2.53-2.53-2.34-3.88c3.89-1.58,3.71-3.23,4.14-5.1s0.25-2.71,2.17-4.63a6.82,6.82,0,1,1,9.64,9.64c-1.92,1.92-2.76,1.74-4.63,2.17s-3.52.25-5.1,4.14C307.51,398.8,305,396.27,305,396.27Z" transform="translate(-286.57 -379.63)"/><path class="cls-2" d="M315.46,383.63a3.69,3.69,0,0,0-3.33,0" transform="translate(-286.57 -379.63)"/></svg>