<svg id="Layer_2" data-name="Layer 2" xmlns="http://www.w3.org/2000/svg" viewBox="0 0 44 44"><defs><style>.cls-1{fill:#ff671b;}.cls-2{fill:#fff;}</style></defs><title>icon_odnoklassniki</title><circle class="cls-1" cx="22" cy="22" r="22"/><path class="cls-2" d="M327.73,339.71a4.33,4.33,0,1,0-4.33-4.33A4.34,4.34,0,0,0,327.73,339.71Zm0-6.12a1.79,1.79,0,1,1-1.79,1.79A1.8,1.8,0,0,1,327.73,333.59Z" transform="translate(-305.83 -317.5)"/><path class="cls-2" d="M329.48,343.25a8.11,8.11,0,0,0,2.52-1,1.27,1.27,0,0,0-1.35-2.15,5.5,5.5,0,0,1-5.83,0,1.27,1.27,0,0,0-1.35,2.15,8.13,8.13,0,0,0,2.52,1l-2.42,2.42a1.27,1.27,0,0,0,1.8,1.79l2.38-2.38,2.38,2.38a1.27,1.27,0,0,0,1.79-1.79Z" transform="translate(-305.83 -317.5)"/></svg>