<svg id="Layer_4" data-name="Layer 4" xmlns="http://www.w3.org/2000/svg" viewBox="0 0 45.01 38.48"><defs><style>.cls-1{fill:#94b9cc;stroke-miterlimit:10;stroke-width:0.5px;}.cls-1,.cls-2{stroke:#94b9cc;}.cls-2{fill:#fff;stroke-linecap:round;stroke-linejoin:round;stroke-width:1.5px;}</style></defs><title>icon_skate</title><path class="cls-1" d="M306.6,379.3s0-1.26,0-1.89a0.41,0.41,0,0,0-.41-0.41c-6.05,0-8.62,1.27-10.68,2.29a7.74,7.74,0,0,1-3.71,1.11,0.41,0.41,0,0,0-.41.41c0,0.05,0,5.21-.09,7.1a16.89,16.89,0,0,1-1.35,3.8c-1.23,2.91-2.62,6.2-2,7.81,0.23,2.59.65,7.56,0.65,8.2a0.42,0.42,0,0,0,.12.29,4.57,4.57,0,0,0,1.91.77,2.84,2.84,0,0,1-.49,2.11c-0.51.51-1.52,0.76-3.1,0.76a1.81,1.81,0,0,0-2,1.69,1.5,1.5,0,0,0,.55,1.15A2.27,2.27,0,0,0,287,415h35.23c7.17,0,7.25-4.6,7.25-4.8a4.34,4.34,0,0,0-2-3.23,6.17,6.17,0,0,0,.74-2.86v0c0-1.46-.61-2.83-4.38-3.41a20.67,20.67,0,0,1-13.68-9l0,0a21.21,21.21,0,0,1-2-4A22.55,22.55,0,0,1,306.6,379.3ZM290.65,392a15.74,15.74,0,0,0,1.42-4.11c0-1.59.07-5.46,0.08-6.71a9,9,0,0,0,3.67-1.18c1.94-1,4.34-2.15,9.9-2.21,0,0.36,0,.71,0,1.05H303.9a0.41,0.41,0,1,0,0,.83h1.89l0,0.22h0a32,32,0,0,0,.37,3.18l-2.1.27a0.41,0.41,0,0,0,.05.83h0.05l2.15-.28a26.07,26.07,0,0,0,.93,3.45l-2,.57a0.41,0.41,0,0,0,.11.81l0.11,0,2-.59a22,22,0,0,0,1.73,3.52l-1.88.92a0.41,0.41,0,1,0,.36.75l2-1a20.34,20.34,0,0,0,2.44,3l-1.75,1.08a0.41,0.41,0,0,0,.22.77,0.41,0.41,0,0,0,.22-0.06l1.93-1.19a21,21,0,0,0,3.22,2.46l-1.44,1.19a0.41,0.41,0,1,0,.53.64l1.67-1.38a22.67,22.67,0,0,0,3.52,1.62l-1.05,1.15a0.41,0.41,0,0,0,.61.56l1.3-1.42a18.18,18.18,0,0,0,2.64.64c3.83,0.58,3.73,1.94,3.66,2.84a3,3,0,0,1-3.07,2.44c-0.64,0-1.89,0-3.33.08-2.08.06-4.67,0.14-6.58,0.14a15.77,15.77,0,0,1-2.49-.11,47.26,47.26,0,0,1-5.17-1.91,57.34,57.34,0,0,0-8.21-2.9c-0.75-.14-1.63-0.26-2.56-0.38-2.92-.38-6.56-0.86-7.3-2.4C288.12,398,289.58,394.55,290.65,392Zm-1.79,8.6c1.54,1.13,4.43,1.5,7,1.85,0.92,0.12,1.78.23,2.51,0.37a57.21,57.21,0,0,1,8.05,2.86,45.9,45.9,0,0,0,5.31,2,16.71,16.71,0,0,0,2.66.12c1.92,0,4.52-.08,6.6-0.14,1.44,0,2.68-.08,3.31-0.08a4,4,0,0,0,2.13-.58,2.38,2.38,0,0,1-.29.28,2.18,2.18,0,0,1-.72.3l-0.11,0a48.65,48.65,0,0,1-8.93.65h0c-1.46,0-2.76,0-3.61-.11-2.11-.18-6.67-2-10-3.35l-1.93-.77c-1.4-.55-2.29-0.61-2.88-0.2-0.78.54-.77,1.69-0.74,3.15,0,0.18,0,.37,0,0.57a5.61,5.61,0,0,1-3.51.79h-0.16a15.66,15.66,0,0,1-2.46-.28h0a6.15,6.15,0,0,1-1.68-.52C289.35,406.44,289,402.63,288.86,400.63ZM326.28,410a1.74,1.74,0,0,1-1.91,1.81h-6.8a1.3,1.3,0,0,1-1-.91,1.93,1.93,0,0,1,.1-1.82,47.06,47.06,0,0,0,8.8-.64A2.2,2.2,0,0,1,326.28,410Zm-13.3.71a1.85,1.85,0,0,1-1.87,1.1H296.54c-2.09,0-2.43-.77-2.46-2.64A5.8,5.8,0,0,0,298,408a0.42,0.42,0,0,0,.12-0.29c0-.26,0-0.52,0-0.76,0-1.16,0-2.17.39-2.46,0.22-.15.77-0.23,2.11,0.29l1.92,0.77c3.56,1.43,8,3.22,10.23,3.4h0.08A1.78,1.78,0,0,1,313,410.68Zm-26.91,3.17a0.68,0.68,0,0,1-.25-0.52,1,1,0,0,1,1.2-.86c1.83,0,3-.32,3.69-1a3.33,3.33,0,0,0,.73-2.54,15.53,15.53,0,0,0,1.81.19c0,2,.43,3.48,3.29,3.48H311.1a2.65,2.65,0,0,0,2.67-3.6l1.91,0a3,3,0,0,0,.08,2.14,2.07,2.07,0,0,0,1.8,1.42h6.8a2.55,2.55,0,0,0,2.74-2.64,2.86,2.86,0,0,0-.78-1.85,1.8,1.8,0,0,0,.38-0.22,3.16,3.16,0,0,0,.33-0.3,3.48,3.48,0,0,1,1.63,2.56c0,0.16-.07,4-6.42,4H287A1.46,1.46,0,0,1,286.07,413.86Z" transform="translate(-284.73 -376.74)"/><path class="cls-1" d="M309.39,380.73" transform="translate(-284.73 -376.74)"/><path class="cls-2" d="M306.3,380.8s10.53,5.74,5.48,6.7-5.46-6.1-5.46-6.1" transform="translate(-284.73 -376.74)"/></svg>