<svg id="Layer_1" data-name="Layer 1" xmlns="http://www.w3.org/2000/svg" xmlns:xlink="http://www.w3.org/1999/xlink" viewBox="0 0 22.83 17.3"><defs><style>.cls-1,.cls-2,.cls-3,.cls-5,.cls-6{fill:none;stroke:#000;stroke-linecap:round;stroke-linejoin:round;stroke-width:1.2px;}.cls-1,.cls-2,.cls-3{clip-rule:evenodd;}.cls-2{clip-path:url(#clip-path);}.cls-3{clip-path:url(#clip-path-2);}.cls-4{clip-path:url(#clip-path-3);}.cls-6{fill-rule:evenodd;}.cls-7{clip-path:url(#clip-path-4);}</style><clipPath id="clip-path"><path class="cls-1" d="M311.16,391.15"/></clipPath><clipPath id="clip-path-2"><path class="cls-1" d="M332.79,405.25"/></clipPath><clipPath id="clip-path-3" transform="translate(-310.56 -389.55)"><path class="cls-2" d="M332.79,397.84v6.37a2,2,0,0,1-2,2H313.2a2,2,0,0,1-2-2v-6.41"/></clipPath><clipPath id="clip-path-4" transform="translate(-310.56 -389.55)"><path class="cls-3" d="M311.16,398.57V392.2a2,2,0,0,1,2-2h17.54a2,2,0,0,1,2,2v6.41"/></clipPath></defs><title>icon_mail</title><g class="cls-4"><path class="cls-5" d="M311.16,391.15a0.68,0.68,0,0,1,.68-0.68h20.27a0.68,0.68,0,0,1,.68.68v13.05a2,2,0,0,1-2,2H313.2a2,2,0,0,1-2-2V391.15h0Z" transform="translate(-310.56 -389.55)"/></g><path class="cls-6" d="M311.16,391.15" transform="translate(-310.56 -389.55)"/><path class="cls-6" d="M332.79,397.84v6.37a2,2,0,0,1-2,2H313.2a2,2,0,0,1-2-2v-6.41" transform="translate(-310.56 -389.55)"/><g class="cls-7"><path class="cls-5" d="M332.79,405.25a0.68,0.68,0,0,1-.68.68H311.84a0.68,0.68,0,0,1-.68-0.68V392.2a2,2,0,0,1,2-2h17.54a2,2,0,0,1,2,2v13.05h0Z" transform="translate(-310.56 -389.55)"/></g><path class="cls-6" d="M332.79,405.25" transform="translate(-310.56 -389.55)"/><path class="cls-6" d="M311.16,398.57V392.2a2,2,0,0,1,2-2h17.54a2,2,0,0,1,2,2v6.41" transform="translate(-310.56 -389.55)"/><polyline class="cls-5" points="1.12 1.39 11.78 9.38 21.71 1.39"/></svg>