<svg id="Layer_2" data-name="Layer 2" xmlns="http://www.w3.org/2000/svg" viewBox="0 0 33.52 40.59"><defs><style>.cls-1,.cls-2{fill:none;stroke:#61b794;stroke-linecap:round;stroke-linejoin:round;}.cls-1{stroke-width:1.5px;}.cls-2{stroke-width:2px;}</style></defs><title>icon_coffee</title><path class="cls-1" d="M316.49,404.79a3.26,3.26,0,0,0,4.56,1.14,3.49,3.49,0,0,0,1.11-4.7,3.26,3.26,0,0,0-4.56-1.14" transform="translate(-289.87 -377.52)"/><path class="cls-2" d="M317.89,396.49c0,9.67-6,17.5-13.51,17.5s-13.51-7.83-13.51-17.5h27Z" transform="translate(-289.87 -377.52)"/><path class="cls-1" d="M303.43,378.27s3,0.91-.84,6.92,0,6.38,0,6.38" transform="translate(-289.87 -377.52)"/><path class="cls-1" d="M308.34,384s1.69,0.52-.48,3.95,0,3.63,0,3.63" transform="translate(-289.87 -377.52)"/><line class="cls-2" x1="1.02" y1="39.59" x2="27.96" y2="39.59"/></svg>