<svg id="Layer_2" data-name="Layer 2" xmlns="http://www.w3.org/2000/svg" viewBox="0 0 44 44"><defs><style>.cls-1{fill:#4e6f93;}.cls-2{fill:#fff;}</style></defs><title>icon_vkontakte_2</title><circle class="cls-1" cx="22" cy="22" r="22"/><path class="cls-2" d="M267.15,339.32A2.13,2.13,0,0,0,269,337c0-2.19-1.53-3.26-3.47-3.26h-6.37V346h6.37s3.89,0.12,3.89-3.62C269.44,342.36,269.61,339.32,267.15,339.32ZM262,335.9h3.57s0.87,0,.87,1.27-0.51,1.46-1.09,1.46H262V335.9Zm3.39,7.89H262v-3.27h3.57s1.29,0,1.29,1.68A1.38,1.38,0,0,1,265.37,343.8Z" transform="translate(-241.5 -317.5)"/></svg>