<svg id="Layer_1" data-name="Layer 1" xmlns="http://www.w3.org/2000/svg" viewBox="0 0 23.83 23.83"><defs><style>.cls-1{fill:none;stroke:#231f20;stroke-linecap:round;stroke-linejoin:round;stroke-width:1.3px;}</style></defs><title>icon_login</title><path class="cls-1" d="M1526,345.07a11.26,11.26,0,1,0,11.26,11.26A11.28,11.28,0,0,0,1526,345.07Z" transform="translate(-1514.11 -344.42)"/><path class="cls-1" d="M1533.52,364.74c-2.44-1-4.82-2.19-5-2.92v-1a6.25,6.25,0,0,0,1.47-2.69,1.6,1.6,0,0,0,.31-2.32v-2.21c0-2.28-1.27-3.84-4.17-3.84s-4.18,1.56-4.18,3.84v2.21a1.6,1.6,0,0,0,.31,2.32,6.25,6.25,0,0,0,1.47,2.69v1c-0.23.74-2.45,1.84-4.93,2.87" transform="translate(-1514.11 -344.42)"/></svg>