<svg id="Layer_2" data-name="Layer 2" xmlns="http://www.w3.org/2000/svg" viewBox="0 0 17.63 18.84"><defs><style>.cls-1{fill:none;stroke:#e8522f;stroke-miterlimit:10;stroke-width:1.3px;}</style></defs><title>icon_clock</title><path class="cls-1" d="M47.73,19.46A7.39,7.39,0,0,0,55,12a7.29,7.29,0,1,0-14.56,0,7.39,7.39,0,0,0,7.28,7.49h0Z" transform="translate(-38.79 -1.68)"/><path class="cls-1" d="M47.82,7.28v4.24l1.89,1.82M52,18.26L53.55,20" transform="translate(-38.79 -1.68)"/><line class="cls-1" x1="4.31" y1="16.63" x2="2.77" y2="18.41"/><path class="cls-1" d="M44.64,2.89a3.33,3.33,0,0,0-5,4" transform="translate(-38.79 -1.68)"/><path class="cls-1" d="M50.58,2.89a3.33,3.33,0,0,1,5,4" transform="translate(-38.79 -1.68)"/></svg>