<svg id="Layer_1" data-name="Layer 1" xmlns="http://www.w3.org/2000/svg" viewBox="0 0 21.24 21.24"><defs><style>.cls-1{fill:#ef9780;fill-rule:evenodd;}</style></defs><title>ion_sale</title><path class="cls-1" d="M294.12,395.89l9.28,9.28,12-12v-5.72l-3.52-3.56H305.6l-11.48,12h0Zm15.77-5.24a1.72,1.72,0,1,0-1.72-1.72,1.72,1.72,0,0,0,1.72,1.72h0Zm-6.13,3.17a1,1,0,1,0-1-1,1,1,0,0,0,1,1h0Zm0,5.43a1,1,0,1,0-1-1,1,1,0,0,0,1,1h0ZM299.2,395h9.17v1H299.2v-1h0Z" transform="translate(-294.12 -383.93)"/></svg>