<svg id="Layer_1" data-name="Layer 1" xmlns="http://www.w3.org/2000/svg" viewBox="0 0 25.36 37.27"><defs><style>.cls-1,.cls-2{fill:none;stroke:#ef9a84;stroke-linecap:round;stroke-linejoin:round;}.cls-1{stroke-width:2px;}.cls-2{stroke-width:1.5px;}</style></defs><title>icon_popcorn</title><polygon class="cls-1" points="21.63 36.27 3.73 36.27 1 12.7 24.36 12.7 21.63 36.27"/><path class="cls-2" d="M300.25,387.74a2.11,2.11,0,1,1-2.11-2.11" transform="translate(-294.13 -377.66)"/><path class="cls-2" d="M307,387.74a2.11,2.11,0,0,1-4.22,0" transform="translate(-294.13 -377.66)"/><path class="cls-2" d="M305.74,386.28a2.11,2.11,0,1,1,4-1.37" transform="translate(-294.13 -377.66)"/><path class="cls-2" d="M312.23,384.2a2.11,2.11,0,1,1,4-1.37" transform="translate(-294.13 -377.66)"/><path class="cls-2" d="M315.42,385.63a2.11,2.11,0,0,1,.12,4.22" transform="translate(-294.13 -377.66)"/><path class="cls-2" d="M301.79,385.63a2.11,2.11,0,1,1,2.11-2.11" transform="translate(-294.13 -377.66)"/><path class="cls-2" d="M310.15,390.37a2.11,2.11,0,1,1,3.38-2.53" transform="translate(-294.13 -377.66)"/><path class="cls-2" d="M309.29,381.4a2.11,2.11,0,0,1,.14-3" transform="translate(-294.13 -377.66)"/><path class="cls-2" d="M303.73,379.7a2.11,2.11,0,0,1,2.48,1.67" transform="translate(-294.13 -377.66)"/><line class="cls-2" x1="12.68" y1="16.13" x2="12.68" y2="36.27"/><line class="cls-2" x1="18.3" y1="16.13" x2="17.11" y2="36.27"/><line class="cls-2" x1="7.06" y1="16.13" x2="8.25" y2="36.27"/><path class="cls-2" d="M306.81,393.15" transform="translate(-294.13 -377.66)"/><path class="cls-2" d="M312.43,393.15" transform="translate(-294.13 -377.66)"/><path class="cls-2" d="M301.18,393.15" transform="translate(-294.13 -377.66)"/><path class="cls-2" d="M306.81,393.15" transform="translate(-294.13 -377.66)"/></svg>