<svg id="Layer_1" data-name="Layer 1" xmlns="http://www.w3.org/2000/svg" viewBox="0 0 49.25 49.25"><defs><style>.cls-1{fill:#8f9599;}</style></defs><title>icon_instagram</title><polygon class="cls-1" points="34.79 19.23 34.79 15.29 34.79 14.7 34.2 14.7 30.25 14.71 30.27 19.25 34.79 19.23"/><path class="cls-1" d="M205.3,496a4.7,4.7,0,1,0-4.71-4.71A4.72,4.72,0,0,0,205.3,496Z" transform="translate(-180.8 -466.26)"/><path class="cls-1" d="M205.42,466.26A24.62,24.62,0,1,0,230,490.88,24.62,24.62,0,0,0,205.42,466.26Zm13.26,22.25v11a5.18,5.18,0,0,1-5.17,5.17H197.09a5.18,5.18,0,0,1-5.17-5.17V483a5.18,5.18,0,0,1,5.17-5.17h16.42a5.18,5.18,0,0,1,5.17,5.17v5.46Z" transform="translate(-180.8 -466.26)"/><path class="cls-1" d="M212.62,491.26a7.32,7.32,0,1,1-14.1-2.75h-4v11a2.57,2.57,0,0,0,2.56,2.57h16.42a2.57,2.57,0,0,0,2.57-2.57v-11h-4A7.27,7.27,0,0,1,212.62,491.26Z" transform="translate(-180.8 -466.26)"/></svg>