<svg id="Layer_1" data-name="Layer 1" xmlns="http://www.w3.org/2000/svg" viewBox="0 0 49.25 49.25"><defs><style>.cls-1{fill:#8f9599;}</style></defs><title>icon_vkontakte</title><path class="cls-1" d="M209.46,366c0-2.27-1.54-2.27-1.54-2.27h-6.34v4.86h6C208.55,368.63,209.46,368.3,209.46,366Z" transform="translate(-180.52 -346.16)"/><path class="cls-1" d="M207.91,372h-6.34v5.82h6c0.9,0,2.62-.28,2.62-2.83C210.21,372,207.91,372,207.91,372Z" transform="translate(-180.52 -346.16)"/><path class="cls-1" d="M205.15,346.16a24.62,24.62,0,1,0,24.63,24.63A24.63,24.63,0,0,0,205.15,346.16Zm9.69,29.1c0,6.65-6.92,6.43-6.92,6.43H196.57V359.89h11.34c3.45,0,6.17,1.9,6.17,5.8s-3.33,4.15-3.33,4.15C215.14,369.84,214.84,375.25,214.84,375.25Z" transform="translate(-180.52 -346.16)"/></svg>